#!OML:ASF E:\Style4\Style4.ASF
:FULLY-SPECIFIED
:DEGREES
2910
root 1.62756 17.1572 -1.09294 -0.323007 -32.4323 4.33716
lowerback 15.1443 2.07551 -3.58092
upperback 7.05152 2.02131 -3.1139
thorax -1.02533 0.921242 -1.55719
lowerneck 3.47338 -2.31622 -3.02422
upperneck 1.10634 -3.19959 4.57893
head -0.115196 -1.63404 1.9752
rclavicle 4.19436e-014 -3.97569e-015
rhumerus 61.4469 -13.3362 -25.4581
rradius 71.3989
rwrist -9.07161
rhand 3.64622 10.7643
rfingers 7.12502
rthumb 29.0779 -16.9861
lclavicle 4.19436e-014 -3.97569e-015
lhumerus 56.0537 15.8213 32.9999
lradius 78.3504
lwrist 13.3837
lhand 4.72797 25.7095
lfingers 7.12502
lthumb 30.1105 53.2767
rfemur -32.1558 13.2992 9.80463
rtibia 45.2641
rfoot -15.8715 -4.06396
rtoes -21.2986
lfemur -22.6639 23.978 -28.4932
ltibia 45.7369
lfoot -30.3535 17.1947
ltoes -4.31204
2911
root 1.62021 17.1577 -1.09176 -0.345845 -32.3896 4.36938
lowerback 15.1162 2.08842 -3.59543
upperback 7.07578 2.03803 -3.14081
thorax -0.984112 0.929108 -1.57852
lowerneck 3.70894 -2.36434 -2.86502
upperneck 0.776858 -3.25198 4.46558
head -0.25977 -1.66329 1.91821
rclavicle -7.95139e-015 5.1684e-015
rhumerus 61.4173 -13.3827 -25.5196
rradius 71.4576
rwrist -9.10198
rhand 3.63487 10.8107
rfingers 7.12502
rthumb 29.067 -16.9415
lclavicle -7.95139e-015 5.1684e-015
lhumerus 56.0871 15.8064 32.9536
lradius 78.4003
lwrist 13.3987
lhand 4.73519 25.7594
lfingers 7.12502
lthumb 30.1174 53.3253
rfemur -32.1102 13.2718 9.79577
rtibia 45.2531
rfoot -15.8764 -4.0647
rtoes -21.1924
lfemur -22.6159 23.9591 -28.4916
ltibia 45.7192
lfoot -30.4098 17.1419
ltoes -4.32891
2912
root 1.61167 17.1586 -1.09081 -0.357894 -32.3094 4.40062
lowerback 15.0683 2.08665 -3.60639
upperback 7.10188 2.03768 -3.16521
thorax -0.930541 0.92852 -1.59576
lowerneck 3.61707 -2.36586 -2.87703
upperneck 0.853602 -3.25513 4.56914
head -0.218417 -1.66425 1.95146
rclavicle 6.67916e-014 4.37326e-015
rhumerus 61.3831 -13.4282 -25.5514
rradius 71.4742
rwrist -9.10658
rhand 3.6296 10.9043
rfingers 7.12502
rthumb 29.062 -16.8488
lclavicle 6.67916e-014 4.37326e-015
lhumerus 56.116 15.7936 32.8937
lradius 78.425
lwrist 13.4375
lhand 4.65148 25.8247
lfingers 7.12502
lthumb 30.0375 53.4051
rfemur -32.0676 13.2288 9.79148
rtibia 45.2412
rfoot -15.8943 -4.07757
rtoes -21.0487
lfemur -22.5756 23.9152 -28.4819
ltibia 45.6923
lfoot -30.3847 17.0953
ltoes -4.41269
2913
root 1.60418 17.1605 -1.08988 -0.293573 -32.2185 4.28325
lowerback 15.0296 2.06386 -3.50535
upperback 7.1219 2.02578 -3.14028
thorax -0.886903 0.924254 -1.62266
lowerneck 3.55409 -2.35783 -2.93592
upperneck 0.908242 -3.24728 4.67054
head -0.188593 -1.66016 1.99314
rclavicle -1.74931e-014 3.18055e-014
rhumerus 61.4118 -13.4603 -25.5983
rradius 71.5156
rwrist -9.1376
rhand 3.63133 10.8452
rfingers 7.12502
rthumb 29.0637 -16.9076
lclavicle -1.74931e-014 3.18055e-014
lhumerus 56.0853 15.8046 32.8483
lradius 78.4434
lwrist 13.4262
lhand 4.65408 25.787
lfingers 7.12502
lthumb 30.04 53.367
rfemur -32.0064 13.1902 9.92542
rtibia 45.2257
rfoot -15.9105 -4.13531
rtoes -21.174
lfemur -22.5466 23.857 -28.3394
ltibia 45.6709
lfoot -30.322 17.0551
ltoes -4.3741
2914
root 1.59616 17.1633 -1.09071 -0.268843 -32.1589 4.27931
lowerback 14.989 2.05931 -3.55971
upperback 7.12095 2.01623 -3.11559
thorax -0.869116 0.917949 -1.56338
lowerneck 3.97402 -2.4161 -2.68461
upperneck 0.396407 -3.30705 4.33781
head -0.425784 -1.69426 1.85501
rclavicle -1.27819e-013 6.12257e-014
rhumerus 61.457 -13.4587 -25.6395
rradius 71.5772
rwrist -9.14259
rhand 3.46382 10.8399
rfingers 7.12502
rthumb 28.9037 -16.9403
lclavicle -1.27819e-013 6.12257e-014
lhumerus 56.0424 15.8009 32.8555
lradius 78.4664
lwrist 13.3833
lhand 4.64461 25.7485
lfingers 7.12502
lthumb 30.0309 53.3302
rfemur -31.9848 13.1169 9.96426
rtibia 45.2104
rfoot -15.9259 -4.17128
rtoes -21.3203
lfemur -22.5418 23.8284 -28.3112
ltibia 45.6463
lfoot -30.2326 17.0314
ltoes -4.3835
2915
root 1.58611 17.1641 -1.09396 -0.237262 -32.0986 4.31806
lowerback 14.9398 2.0728 -3.66378
upperback 7.09995 2.02377 -3.09404
thorax -0.869195 0.919477 -1.48226
lowerneck 4.2429 -2.45505 -2.56552
upperneck 0.0982623 -3.35073 4.12982
head -0.567687 -1.71811 1.77668
rclavicle -9.80008e-014 -5.56597e-015
rhumerus 61.4452 -13.4602 -25.6159
rradius 71.6717
rwrist -9.17485
rhand 3.35638 10.7841
rfingers 7.12502
rthumb 28.801 -17.0137
lclavicle -9.80008e-014 -5.56597e-015
lhumerus 56.0032 15.7612 32.8692
lradius 78.4935
lwrist 13.3057
lhand 4.59972 25.7011
lfingers 7.12502
lthumb 29.9881 53.2905
rfemur -32.0051 13.0883 9.94823
rtibia 45.1922
rfoot -15.9079 -4.19313
rtoes -21.1999
lfemur -22.5813 23.7533 -28.3332
ltibia 45.613
lfoot -30.2322 17.0118
ltoes -4.21636
2916
root 1.57511 17.1665 -1.09423 -0.171293 -32.0012 4.24124
lowerback 14.9051 2.06125 -3.62818
upperback 7.08675 2.01665 -3.06999
thorax -0.864743 0.916836 -1.47492
lowerneck 4.08147 -2.43737 -2.68992
upperneck 0.335886 -3.33599 4.27425
head -0.462689 -1.70948 1.8386
rclavicle 3.24019e-014 -4.8901e-014
rhumerus 61.4303 -13.4577 -25.6717
rradius 71.7734
rwrist -9.20803
rhand 3.4035 10.7347
rfingers 7.12502
rthumb 28.8461 -17.0554
lclavicle 3.24019e-014 -4.8901e-014
lhumerus 55.9846 15.7223 32.8422
lradius 78.5025
lwrist 13.2917
lhand 4.64873 25.7287
lfingers 7.12502
lthumb 30.0349 53.3096
rfemur -31.9662 13.0482 10.0528
rtibia 45.1646
rfoot -15.9168 -4.22931
rtoes -21.1417
lfemur -22.5607 23.6576 -28.2311
ltibia 45.5655
lfoot -30.2082 16.9813
ltoes -4.11302
2917
root 1.56449 17.1712 -1.09214 -0.18648 -31.8617 4.23278
lowerback 14.9045 2.05455 -3.60447
upperback 7.10536 2.0119 -3.07839
thorax -0.843711 0.914989 -1.49594
lowerneck 3.71745 -2.43196 -2.8261
upperneck 0.779175 -3.34063 4.51773
head -0.256776 -1.70794 1.92915
rclavicle 2.54444e-014 1.11319e-014
rhumerus 61.3806 -13.5002 -25.7257
rradius 71.861
rwrist -9.25115
rhand 3.37624 10.7162
rfingers 7.12502
rthumb 28.82 -17.0784
lclavicle 2.54444e-014 1.11319e-014
lhumerus 56.0439 15.6764 32.858
lradius 78.5107
lwrist 13.2145
lhand 4.81094 25.6324
lfingers 7.12502
lthumb 30.1896 53.1851
rfemur -31.8453 12.9645 10.1072
rtibia 45.1195
rfoot -15.9812 -4.26962
rtoes -21.2461
lfemur -22.457 23.5472 -28.1634
ltibia 45.499
lfoot -30.1401 16.9759
ltoes -4.35834
